<svg width="38" height="38" viewBox="0 0 38 38" fill="none" xmlns="http://www.w3.org/2000/svg">
<path d="M37.3877 18.6891C37.3877 28.9982 29.0056 37.3782 18.6939 37.3782C8.38209 37.3782 0 28.9982 0 18.6891C0 8.37995 8.38209 0 18.6939 0C29.0056 0 37.3877 8.37995 37.3877 18.6891Z" fill="#D3C0F5"/>
<path d="M19.1991 0C29.2322 0 37.3877 8.37995 37.3877 18.6891C37.3877 28.9982 29.2322 37.3782 19.1991 37.3782" fill="#9161E5"/>
<path d="M5.05237 5.54834C12.452 -1.84945 24.4383 -1.84945 31.8379 5.54834C39.2376 12.9461 39.2376 24.9293 31.8379 32.3271" fill="#9C71E8"/>
<path d="M26.5935 19.2917H10.7942C10.3118 19.2917 9.88965 19.1711 9.88965 18.6888C9.88965 18.2065 10.3118 18.0859 10.7942 18.0859H26.5935C27.0759 18.0859 27.4981 18.2065 27.4981 18.6888C27.4981 19.1711 27.0759 19.2917 26.5935 19.2917Z" fill="#EEFFFF"/>
<path d="M18.6938 27.4304C18.2114 27.4304 18.0908 27.0686 18.0908 26.526V10.791C18.0908 10.3087 18.2114 9.88672 18.6938 9.88672C19.1763 9.88672 19.2969 10.2484 19.2969 10.791V26.5863C19.2969 27.0686 19.1763 27.4304 18.6938 27.4304Z" fill="#EEFFFF"/>
<path d="M28.7904 19.653H20.219V27.7959H17.3618V19.653H8.79041V16.9388H17.3618V8.7959H20.219V16.9388H28.7904V19.653Z" fill="#F1F1FC"/>
</svg>
