<svg width="17" height="17" viewBox="0 0 17 17" fill="none" xmlns="http://www.w3.org/2000/svg">
<path d="M8.5 17C13.1944 17 17 13.1944 17 8.5C17 3.80558 13.1944 0 8.5 0C3.80558 0 0 3.80558 0 8.5C0 13.1944 3.80558 17 8.5 17Z" fill="#A781EA"/>
<path d="M15.6189 3.86523L8.10168 11.6481L8.11497 12.4848H8.46029L16.6018 5.92384C16.3627 5.19338 16.0306 4.48946 15.6189 3.86523Z" fill="#8357CE"/>
<path d="M16.8406 3.49338L15.3398 2.00587C15.1406 1.80664 14.8086 1.80664 14.5961 2.00587L8.1812 8.63324L5.40539 5.8973C5.20616 5.69807 4.87413 5.69807 4.66165 5.8973L3.3335 7.21216C3.13427 7.41139 3.13427 7.74342 3.3335 7.94265L7.76948 12.3387C7.88903 12.4583 8.0484 12.4981 8.20777 12.4848C8.36714 12.4981 8.52651 12.4582 8.64606 12.3387L16.8406 4.23713C17.0399 4.02461 17.0399 3.69258 16.8406 3.49338Z" fill="#FCFCFC"/>
<path d="M8.64608 12.3381L16.8407 4.23653C17.0399 4.0373 17.0399 3.70527 16.8407 3.50604L16.6016 3.28027L8.1945 11.5413L3.54604 7.01234L3.34681 7.21157C3.14758 7.4108 3.14758 7.74282 3.34681 7.94205L7.78279 12.3382C7.90233 12.4577 8.0617 12.4975 8.22108 12.4843C8.36716 12.4975 8.52653 12.4577 8.64608 12.3381Z" fill="#DCE0E5"/>
</svg>
