<svg width="32" height="37" viewBox="0 0 32 37" fill="none" xmlns="http://www.w3.org/2000/svg">
<path d="M30.7368 0H5.26314C4.56565 0 4 0.567402 4 1.26715V4.43481H26.2104C26.908 4.43481 27.4737 5.00213 27.4737 5.70187V34H30.7368C31.4344 34 32 33.4327 32 32.7329V1.26715C32 0.567318 31.4344 0 30.7368 0Z" fill="#8357CE"/>
<path d="M30.7236 0H15.872C14.3945 1.301 13.091 2.79198 12 4.43481H26.1499C26.8548 4.43481 27.4264 5.00213 27.4264 5.70187V34H30.7236C31.4284 34 32 33.4327 32 32.7329V1.26715C32 0.567318 31.4285 0 30.7236 0Z" fill="#9161E5"/>
<path d="M26.7368 4H1.26314C0.565563 4 0 4.55072 0 5.2298V27.2893L9.97397 37C10.3615 37 26.5089 37 26.7368 37C27.4344 37 28 36.4494 28 35.7702V5.2298C28 4.55072 27.4344 4 26.7368 4Z" fill="#BDA0EF"/>
<path d="M26.7382 4H12.7206C4.2611 16.3827 10.9054 33.3523 25.7989 37H26.7382C27.4351 37 28 36.4494 28 35.7702V5.2298C28 4.55071 27.435 4 26.7382 4Z" fill="#D3C0F5"/>
<path d="M10 37V28.2665C10 27.567 9.43304 27 8.73356 27H0L10 37Z" fill="#9161E5"/>
</svg>
