<svg width="369" height="490" xmlns="http://www.w3.org/2000/svg">
 <defs>
  <linearGradient id="paint0_linear" x1="0.45011" y1="0.4808" x2="0.49492" y2="-0.16025">
   <stop stop-color="#EEE7FC"/>
   <stop offset="1" stop-color="#EDE8F4" stop-opacity="0"/>
  </linearGradient>
 </defs>
 <g>
  <title>background</title>
  <rect x="-1" y="-1" width="371" height="492" id="canvas_background" fill="#ffffff"/>
 </g>
 <g>
  <title>Layer 1</title>
  <rect width="369" height="490" fill="url(#paint0_linear)" id="svg_1"/>
 </g>
 <g>
  <title>Layer 2</title>
  <svg y="132.9995" x="17.5" id="svg_4" viewBox="0 0 334 224" height="224" width="334">
   <g id="svg_5" clip-path="url(#svg_2)">
    <path id="svg_6" fill="#3F3D56" d="m334,223.381l-142.084,0l0,0.62l142.084,0l0,-0.62z"/>
    <path id="svg_7" fill="#3F3D56" d="m323.131,214.395l-142.084,0l0,0.619l142.084,0l0,-0.619z"/>
    <path id="svg_8" fill="#3F3D56" d="m278.104,205.41l-142.084,0l0,0.62l142.084,0l0,-0.62z"/>
    <path id="svg_9" fill="#3F3D56" d="m102.244,178.326c-0.861,0 -1.732,-0.014 -2.5859,-0.04l0.0194,-0.619c1.2265,0.038 2.4785,0.048 3.7105,0.031l0.009,0.62c-0.384,0.005 -0.768,0.008 -1.153,0.008zm4.89,-0.144l-0.037,-0.618c1.229,-0.073 2.473,-0.174 3.699,-0.302l0.064,0.616c-1.234,0.129 -2.488,0.231 -3.726,0.304l0,0zm-11.2093,-0.096c-1.2388,-0.095 -2.4906,-0.219 -3.7209,-0.37l0.0758,-0.615c1.2209,0.15 2.463,0.273 3.6924,0.367l-0.0473,0.618zm18.6443,-0.682l-0.093,-0.612c1.22,-0.185 2.45,-0.4 3.655,-0.638l0.121,0.607c-1.214,0.241 -2.453,0.457 -3.683,0.643zm-26.0648,-0.226c-1.2238,-0.207 -2.4591,-0.445 -3.6715,-0.708l0.1317,-0.606c1.2032,0.261 2.429,0.497 3.6435,0.702l-0.1037,0.612zm33.3978,-1.228l-0.15,-0.601c1.199,-0.296 2.403,-0.623 3.582,-0.971l0.176,0.594c-1.187,0.351 -2.401,0.68 -3.608,0.978zm-40.704,-0.355c-1.2004,-0.319 -2.4085,-0.669 -3.5905,-1.042l0.1871,-0.591c1.1731,0.37 2.3719,0.718 3.5629,1.034l-0.1595,0.599zm47.871,-1.766l-0.203,-0.586c1.162,-0.403 2.332,-0.839 3.476,-1.296l0.23,0.576c-1.152,0.46 -2.331,0.899 -3.503,1.306zm-55.0093,-0.486c-1.1659,-0.427 -2.3391,-0.889 -3.4866,-1.371l0.2411,-0.571c1.1387,0.478 2.3028,0.936 3.4599,1.361l-0.2144,0.581zm61.9433,-2.283l-0.257,-0.564c1.117,-0.506 2.239,-1.046 3.336,-1.605l0.283,0.551c-1.106,0.564 -2.237,1.108 -3.362,1.618zm6.645,-3.389l-0.307,-0.537c1.071,-0.61 2.14,-1.251 3.176,-1.905l0.332,0.523c-1.044,0.66 -2.121,1.306 -3.201,1.919zm6.311,-3.983l-0.355,-0.508c1.008,-0.703 2.015,-1.439 2.991,-2.187l0.378,0.491c-0.983,0.754 -1.997,1.496 -3.014,2.204zm-94.6585,-0.873c-1.0024,-0.726 -2.0037,-1.487 -2.9764,-2.262l0.3875,-0.484c0.9653,0.769 1.959,1.524 2.9537,2.245l-0.3648,0.501zm100.5835,-3.67l-0.401,-0.473c0.94,-0.792 1.875,-1.616 2.78,-2.451l0.422,0.455c-0.912,0.841 -1.854,1.672 -2.801,2.469zm-106.4293,-0.987c-0.9336,-0.815 -1.8611,-1.664 -2.7566,-2.521l0.43,-0.448c0.8888,0.852 1.8092,1.694 2.7357,2.503l-0.4091,0.466zm111.9173,-4.077l-0.443,-0.435c0.867,-0.876 1.724,-1.783 2.547,-2.694l0.462,0.414c-0.83,0.919 -1.693,1.832 -2.566,2.715zm-117.312,-1.088c-0.8565,-0.899 -1.7024,-1.828 -2.5143,-2.761l0.4692,-0.406c0.8056,0.926 1.645,1.848 2.4952,2.74l-0.4501,0.427zm122.317,-4.455l-0.479,-0.394c0.782,-0.95 1.553,-1.931 2.291,-2.915l0.497,0.371c-0.743,0.992 -1.52,1.98 -2.309,2.938zm-127.2165,-1.177c-0.7692,-0.969 -1.5266,-1.971 -2.2512,-2.975l0.5039,-0.362c0.7192,0.997 1.4708,1.99 2.2343,2.953l-0.487,0.384zm131.6975,-4.801l-0.514,-0.348c0.693,-1.017 1.371,-2.065 2.016,-3.113l0.53,0.324c-0.651,1.057 -1.334,2.112 -2.032,3.137zm-136.0609,-1.248c-0.6768,-1.035 -1.3391,-2.1 -1.9688,-3.167l0.535,-0.314c0.625,1.058 1.2823,2.115 1.9539,3.142l-0.5201,0.339zm139.9779,-5.116l-0.543,-0.299c0.596,-1.077 1.175,-2.182 1.722,-3.286l0.557,0.274c-0.551,1.113 -1.135,2.227 -1.736,3.311zm3.317,-6.698l-0.569,-0.249c0.495,-1.128 0.97,-2.283 1.413,-3.432l0.58,0.222c-0.446,1.159 -0.925,2.322 -1.424,3.459zm-150.2682,-1.337c-0.4761,-1.14 -0.932,-2.307 -1.3551,-3.467l0.5838,-0.212c0.4197,1.152 0.8722,2.309 1.3445,3.44l-0.5732,0.239zm152.9542,-5.644l-0.59,-0.195c0.388,-1.165 0.754,-2.356 1.087,-3.54l0.598,0.168c-0.336,1.193 -0.705,2.393 -1.095,3.567zm-155.5056,-1.358c-0.3695,-1.181 -0.7168,-2.387 -1.032,-3.586l0.6008,-0.157c0.3128,1.19 0.6574,2.387 1.0241,3.559l-0.5929,0.184zm157.5296,-5.823l-0.605,-0.14c0.278,-1.195 0.532,-2.414 0.756,-3.625l0.611,0.112c-0.225,1.22 -0.482,2.449 -0.762,3.653zm-159.4265,-1.392c-0.2589,-1.211 -0.4934,-2.443 -0.6965,-3.665l0.6125,-0.102c0.2019,1.213 0.4344,2.436 0.6915,3.637l-0.6075,0.13zm160.7805,-5.944l-0.616,-0.084c0.167,-1.213 0.308,-2.451 0.419,-3.678l0.619,0.056c-0.112,1.236 -0.254,2.483 -0.422,3.706l0,0zm-162.0044,-1.415c-0.1465,-1.226 -0.2667,-2.475 -0.3575,-3.713l0.6195,-0.045c0.0899,1.228 0.2094,2.468 0.3548,3.685l-0.6168,0.073zm162.6794,-6.013l-0.621,-0.028c0.056,-1.2275 0.084,-2.4728 0.084,-3.7009l0.621,0c0,1.2374 -0.028,2.4922 -0.084,3.7289zm-163.2251,-1.4255c-0.0213,-0.7598 -0.032,-1.5349 -0.0322,-2.3034c0,-0.4769 0.0041,-0.9528 0.0123,-1.4278l0.6211,0.0109c-0.0082,0.4714 -0.0123,0.9437 -0.0123,1.4169c0.0002,0.7627 0.0109,1.5321 0.0318,2.2864l-0.6207,0.017zm0.7486,-7.4195l-0.6199,-0.0388c0.0775,-1.238 0.1845,-2.4885 0.3178,-3.7167l0.6175,0.0667c-0.1324,1.219 -0.2384,2.4599 -0.3154,3.6888l0,0zm161.5385,-3.7803c-0.124,-1.2216 -0.295,-1.8172 -0.475,-3.0335l0.614,-0.0905c0.182,1.2255 0.337,2.161 0.463,3.3918l-0.602,-0.2678zm-160.7396,-3.5789l-0.6138,-0.0947c0.1903,-1.2258 0.4114,-2.4613 0.6572,-3.6726l0.6086,0.1229c-0.2438,1.202 -0.4632,2.4281 -0.652,3.6444l0,0zm159.6376,-3.103c-0.237,-1.2088 -0.504,-2.4255 -0.794,-3.6164l0.603,-0.1464c0.293,1.1999 0.562,2.4261 0.801,3.6439l-0.61,0.1189zm-158.1665,-4.152l-0.6024,-0.1507c0.3016,-1.2001 0.6356,-2.4102 0.9928,-3.5968l0.5947,0.1782c-0.3543,1.1775 -0.6858,2.3784 -0.9851,3.5693zm156.4115,-3.0405c-0.346,-1.1798 -0.725,-2.3666 -1.125,-3.5278l0.587,-0.2015c0.404,1.1701 0.785,2.3663 1.134,3.5551l-0.596,0.1742zm-154.2736,-4.0586l-0.5858,-0.2055c0.4127,-1.1713 0.8583,-2.3483 1.3244,-3.4981l0.5759,0.2323c-0.4626,1.141 -0.9049,2.309 -1.3145,3.4713zm151.8616,-2.9417c-0.453,-1.1403 -0.938,-2.2847 -1.442,-3.4016l0.566,-0.2545c0.508,1.1255 0.997,2.2788 1.454,3.4277l-0.578,0.2284zm-149.074,-3.9355l-0.5644,-0.2587c0.5187,-1.127 1.0708,-2.2572 1.6409,-3.3592l0.552,0.2841c-0.5659,1.0937 -1.1137,2.2153 -1.6285,3.3338zm146.035,-2.7994c-0.556,-1.0939 -1.145,-2.1901 -1.751,-3.2577l0.541,-0.3053c0.61,1.0759 1.203,2.1804 1.763,3.2828l-0.553,0.2802zm-142.6263,-3.789l-0.5383,-0.3092c0.6196,-1.0733 1.273,-2.1477 1.9421,-3.193l0.5234,0.3334c-0.664,1.0375 -1.3125,2.1037 -1.9272,3.1688zm138.9773,-2.6443c-0.656,-1.0423 -1.344,-2.0807 -2.043,-3.0864l0.51,-0.3531c0.705,1.0134 1.398,2.0597 2.059,3.11l-0.526,0.3295zm-134.9797,-3.6012l-0.5077,-0.3571c0.716,-1.0131 1.4646,-2.0229 2.2254,-3.0013l0.4907,0.3797c-0.7549,0.9712 -1.4981,1.9733 -2.2084,2.9787zm130.7547,-2.4762c-0.748,-0.978 -1.528,-1.9503 -2.317,-2.8897l0.476,-0.398c0.795,0.9467 1.581,1.9262 2.335,2.9116l-0.494,0.3761zm-126.2044,-3.3767l-0.4728,-0.4018c0.8035,-0.9415 1.641,-1.8787 2.489,-2.7855l0.454,0.4227c-0.8415,0.8999 -1.6726,1.8302 -2.4702,2.7646zm121.4404,-2.2952c-0.834,-0.906 -1.699,-1.804 -2.572,-2.6687l0.438,-0.4396c0.879,0.8715 1.751,1.7761 2.592,2.689l-0.458,0.4193zm-116.3772,-3.118l-0.4343,-0.443c0.8881,-0.8668 1.8071,-1.7238 2.7313,-2.5471l0.4136,0.4624c-0.9172,0.8169 -1.8292,1.6674 -2.7106,2.5277l0,0zm111.1152,-2.1005c-0.915,-0.8274 -1.859,-1.6434 -2.806,-2.4253l0.396,-0.4775c0.954,0.7879 1.906,1.6101 2.827,2.4438l-0.417,0.459zm-105.582,-2.8293l-0.3921,-0.4804c0.9606,-0.7805 1.9533,-1.5502 2.9507,-2.2878l0.37,0.4977c-0.99,0.7322 -1.9753,1.496 -2.9286,2.2705l0,0zm5.9567,-4.4048l-0.3466,-0.514c1.028,-0.6901 2.0864,-1.3659 3.1458,-2.009l0.3227,0.5295c-1.0513,0.6381 -2.1016,1.3089 -3.1219,1.9935zm6.3311,-3.8422l-0.2981,-0.5437c1.0876,-0.5937 2.2028,-1.1698 3.3146,-1.7124l0.2729,0.5567c-1.1032,0.5384 -2.21,1.1101 -3.2894,1.6994l0,0zm74.9542,-1.4356c-1.106,-0.5493 -2.238,-1.08 -3.365,-1.5772l0.251,-0.5667c1.136,0.501 2.277,1.0358 3.391,1.5893l-0.277,0.5546zm-68.302,-1.8107l-0.2468,-0.5685c1.1366,-0.4915 2.2992,-0.9629 3.4556,-1.4011l0.2204,0.5794c-1.1475,0.4348 -2.3012,0.9025 -3.4292,1.3902l0,0zm61.502,-1.188c-1.15,-0.4449 -2.327,-0.8694 -3.498,-1.2615l0.197,-0.5875c1.181,0.3953 2.367,0.8229 3.525,1.2715l-0.224,0.5775zm-54.5744,-1.4365l-0.1935,-0.5888c1.1803,-0.386 2.3845,-0.7496 3.5791,-1.0801l0.166,0.5969c-1.1854,0.3281 -2.3804,0.6888 -3.5516,1.072zm47.5314,-0.9213c-1.184,-0.3369 -2.393,-0.6507 -3.591,-0.9325l0.143,-0.603c1.207,0.284 2.425,0.6001 3.619,0.9395l-0.171,0.596zm-40.3823,-1.0582l-0.1383,-0.6041c1.21,-0.2757 2.4426,-0.527 3.6634,-0.7467l0.1104,0.6097c-1.2117,0.2181 -2.4347,0.4674 -3.6355,0.7411zm33.1613,-0.6404c-1.209,-0.2264 -2.441,-0.4279 -3.662,-0.5989l0.087,-0.6136c1.229,0.1723 2.471,0.3754 3.69,0.6035l-0.115,0.609zm-25.8599,-0.6742l-0.0822,-0.6142c1.2294,-0.1637 2.4797,-0.3014 3.7161,-0.4088l0.054,0.6173c-1.227,0.1068 -2.4676,0.2432 -3.6879,0.4057zm18.5129,-0.3555c-1.223,-0.115 -2.469,-0.2036 -3.701,-0.2631l0.03,-0.619c1.242,0.06 2.496,0.1493 3.729,0.2652l-0.058,0.6169zm-11.1217,-0.2879l-0.026,-0.619c1.1414,-0.0475 2.3047,-0.0717 3.4577,-0.072l0.281,0.0004l-0.001,0.6196l-0.28,-0.0004c-1.144,0.0003 -2.299,0.0243 -3.4317,0.0714z"/>
    <path id="svg_10" fill="#FFB9B9" d="m241.739,72.3008l-1.552,10.5339c0,0 -6.832,13.632 -2.485,27.5743l5.59,-3.408c0,0 4.347,-16.7307 4.347,-17.9699c0,-1.2393 1.864,-15.8009 1.864,-15.8009l-7.764,-0.9294z"/>
    <path id="svg_11" fill="#2F2E41" d="m244.844,106.07l-7.452,4.957l3.726,18.28c0,0 0.932,24.785 0.621,25.715c-0.311,0.929 -5.9,38.727 -5.9,38.727c0,0 6.521,3.099 12.421,1.24c0,0 5.9,-27.884 5.9,-35.939l6.832,-28.194l10.558,32.221c0,0 0.621,21.688 1.864,28.814c1.242,7.125 1.242,8.055 1.242,8.055c0,0 9.937,2.788 12.421,0c0,0 -1.242,-36.559 -2.174,-40.277l-2.173,-44.304l-37.886,-9.295z"/>
    <path id="svg_12" fill="#2F2E41" d="m238.323,193.749c0,0 -0.621,-0.93 -2.484,1.549c-1.864,2.479 -7.764,7.126 -7.764,7.126c0,0 -16.148,11.463 -4.037,12.083c12.111,0.619 14.285,-5.577 14.285,-5.577c0,0 10.247,-1.859 10.558,-4.028c0.311,-2.168 -1.242,-10.843 -1.242,-10.843l-9.316,-0.31z"/>
    <path id="svg_13" fill="#2F2E41" d="m275.277,199.326c0,0 -2.174,7.436 -1.553,10.534c0.621,3.098 -1.242,14.562 7.453,13.632c8.695,-0.929 5.9,-10.844 5.9,-10.844l-2.795,-12.702l-9.005,-0.62z"/>
    <path id="svg_14" fill="#FFB9B9" d="m263.011,37.1356c5.659,0 10.247,-4.5774 10.247,-10.224c0,-5.6466 -4.588,-10.2241 -10.247,-10.2241c-5.66,0 -10.248,4.5775 -10.248,10.2241c0,5.6466 4.588,10.224 10.248,10.224z"/>
    <path id="svg_15" fill="#FFB9B9" d="m256.955,32.3333c0,0 3.105,10.8437 0.621,14.8713c-2.484,4.0277 16.769,0.6197 18.011,-3.0982c0,0 -6.211,-6.816 -5.279,-13.3222l-13.353,1.5491z"/>
    <path id="svg_16" fill="#744EB7" d="m261.924,46.8955c0,0 8.501,0.5734 12.635,-4.0508l15.313,6.5294l-6.521,35.9391c0,0 13.042,30.3628 1.242,33.1508c-11.8,2.788 -45.959,0 -44.407,-10.224c1.553,-10.2241 7.764,-22.617 7.764,-22.617c0,0 1.553,-13.632 -1.863,-19.8284c-3.416,-6.1965 -1.242,-13.3223 -1.242,-13.3223l13.669,-9.0359c0,0 0.615,3.4591 3.41,3.4591z"/>
    <path id="svg_17" fill="#744EB7" d="m248.571,52.7812l-3.726,0c0,0 -4.348,0.9295 -3.416,12.7027l-2.174,8.3651c0,0 10.869,2.7884 12.421,1.2393c1.553,-1.5491 -3.105,-22.3071 -3.105,-22.3071z"/>
    <path id="svg_18" fill="#FFB9B9" d="m293.598,71.3711l-1.242,10.8437c0,0 1.553,14.2517 -3.726,25.4052l-1.863,5.577c0,0 -1.864,16.11 -6.832,16.11c-4.969,0 0,-18.279 0,-18.279l2.484,-18.2793c0,0 1.863,-7.1259 0.621,-10.2241c-1.242,-3.0982 -1.553,-9.6044 -1.553,-9.6044l12.111,-1.5491z"/>
    <path id="svg_19" fill="#2F2E41" d="m260.493,20.2209c1.521,-0.2374 3.054,-0.389 4.592,-0.4542c1.114,-0.0473 2.275,-0.0397 3.282,0.4387c1.518,0.7214 2.369,2.3521 2.926,3.9352c0.557,1.5831 0.952,3.275 1.985,4.5988c1.719,-1.7902 2.062,-4.4517 2.318,-6.9177c0.18,-1.7345 0.34,-3.584 -0.464,-5.1324c-0.495,-0.9537 -1.312,-1.6969 -2.139,-2.384c-3.95,-3.2799 -8.967,-5.86077 -14.053,-5.12408l-0.119,0.78337c-0.867,-0.02603 -1.736,0.02842 -2.594,0.16261l0.182,1.9435l-2.701,0.171l-0.104,2.0255l-2.732,0.0945c0.053,0.7784 0.392,1.5098 0.953,2.0533c-0.42,0.3029 -0.897,0.518 -1.403,0.6323c0.455,1.7595 0.898,3.523 1.368,5.2785c0.347,1.2932 0.285,2.4358 1.675,1.8047c1.059,-0.4806 1.775,-2.0086 2.845,-2.64c1.261,-0.7437 2.753,-1.0465 4.183,-1.2696z"/>
    <path id="svg_20" fill="#744EB7" d="m285.524,49.6836l4.348,0c0,0 7.142,23.8562 5.9,24.166c-1.242,0.3098 -15.837,1.2393 -15.837,1.2393l5.589,-25.4053z"/>
    <path id="svg_21" fill="#A781EA" d="m100.601,120.477c13.892,0 25.153,-11.236 25.153,-25.0954c0,-13.8599 -11.261,-25.0955 -25.153,-25.0955c-13.8917,0 -25.1532,11.2356 -25.1532,25.0955c0,13.8594 11.2615,25.0954 25.1532,25.0954z"/>
    <path id="svg_22" fill="white" d="m116.438,92.9033l-13.353,0l0,-13.3222l-4.9683,0l0,13.3222l-13.353,0l0,4.9572l13.353,0l0,13.3225l4.9683,0l0,-13.3225l13.353,0l0,-4.9572z"/>
    <path id="svg_23" fill="#F2F2F2" d="m56.4431,137.773l-34.2063,0l0,39.761l34.2063,0l0,-39.761z"/>
    <path id="svg_24" fill="#3F3D56" d="m69.7271,177.866l-47.8223,0l0,-47.713l47.8223,0l0,47.713zm-47.1581,-0.663l46.4939,0l0,-46.387l-46.4939,0l0,46.387z"/>
    <path id="svg_25" fill="#3F3D56" d="m61.0924,144.068l-29.2247,0l0,0.663l29.2247,0l0,-0.663z"/>
    <path id="svg_26" fill="#3F3D56" d="m61.0924,151.357l-29.2247,0l0,0.663l29.2247,0l0,-0.663z"/>
    <path id="svg_27" fill="#3F3D56" d="m61.0924,158.648l-29.2247,0l0,0.663l29.2247,0l0,-0.663z"/>
    <path id="svg_28" fill="#F2F2F2" d="m138.744,7.07422l-68.9383,0l0,34.13148l68.9383,0l0,-34.13148z"/>
    <path id="svg_29" fill="#3F3D56" d="m152.718,41.5159l-83.2229,0l0,-41.5159l83.2229,0l0,41.5159zm-82.6018,-0.6196l81.9808,0l0,-40.27666l-81.9808,0l0,40.27666z"/>
    <path id="svg_30" fill="#3F3D56" d="m126.624,17.3242l-44.6982,0l0,0.6197l44.6982,0l0,-0.6197z"/>
    <path id="svg_31" fill="#3F3D56" d="m126.624,23.8301l-44.6982,0l0,0.6196l44.6982,0l0,-0.6196z"/>
    <path id="svg_32" fill="#3F3D56" d="m126.624,30.3359l-44.6982,0l0,0.6197l44.6982,0l0,-0.6197z"/>
    <path id="svg_33" fill="#F2F2F2" d="m194.072,93.2129l-29.501,0l0,31.2921l29.501,0l0,-31.2921z"/>
    <path id="svg_34" fill="#3F3D56" d="m201.525,124.815l-37.264,0l0,-37.1783l37.264,0l0,37.1783zm-36.643,-0.619l36.022,0l0,-35.9396l-36.022,0l0,35.9396z"/>
    <path id="svg_35" fill="#3F3D56" d="m189.569,104.521l-20.495,0l0,0.62l20.495,0l0,-0.62z"/>
    <path id="svg_36" fill="#3F3D56" d="m189.569,108.549l-20.495,0l0,0.619l20.495,0l0,-0.619z"/>
    <path id="svg_37" fill="#3F3D56" d="m189.569,112.577l-20.495,0l0,0.62l20.495,0l0,-0.62z"/>
    <path id="svg_38" fill="#3F3D56" d="m182.148,40.8965l-142.0835,0l0,0.6196l142.0835,0l0,-0.6196z"/>
    <path id="svg_39" fill="#3F3D56" d="m221.865,124.195l-77.945,0l0,0.62l77.945,0l0,-0.62z"/>
    <path id="svg_40" fill="#3F3D56" d="m91.6319,177.484l-91.6319,0l0,0.62l91.6319,0l0,-0.62z"/>
   </g>
   <defs>
    <clipPath id="svg_2">
     <rect id="svg_41" fill="white" height="224" width="334"/>
    </clipPath>
   </defs>
  </svg>
 </g>
</svg>