<svg width="36" height="36" viewBox="0 0 36 36" fill="none" xmlns="http://www.w3.org/2000/svg">
<path d="M16.4572 32.9147V13.3718H18.0001V10.2861H5.65723V36.0004H18.0001V32.9147H16.4572ZM13.3715 32.9147H10.2858V13.3718H13.3715V32.9147Z" fill="#BDA0EF"/>
<path d="M18 13.3718H19.5429V32.9147H18V36.0004H30.3429V10.2861H18V13.3718ZM22.6286 13.3718H25.7143V32.9147H22.6286V13.3718Z" fill="#9C71E8"/>
<path d="M16.4572 32.9139H18H19.5429V13.3711H18H16.4572V32.9139Z" fill="#DED0F7"/>
<path d="M13.3715 13.3711H10.2858V32.9139H13.3715V13.3711Z" fill="#E9DFFA"/>
<path d="M25.7143 13.3711H22.6285V32.9139H25.7143V13.3711Z" fill="#D3C0F5"/>
<path d="M33.4286 6.17143H25.7143V0H10.2857V6.17143H2.57141V10.2857H5.65713H18H30.3428H33.4286V6.17143ZM13.3714 3.08571H22.6286V6.17143H13.3714V3.08571Z" fill="#8357CE"/>
</svg>
