<svg width="37" height="37" viewBox="0 0 37 37" fill="none" xmlns="http://www.w3.org/2000/svg">
<g clip-path="url(#clip0)">
<path d="M27.5117 1.62785C29.6822 -0.542616 33.2019 -0.542616 35.3724 1.62785C37.5428 3.79831 37.5428 7.31802 35.3724 9.48848L27.5117 1.62785Z" fill="#744EB7"/>
<path d="M29.4765 12.4355L11.4722 30.4405L11.104 33.7567L30.9508 13.9092L29.4765 12.4355Z" fill="#BDA0EF"/>
<path d="M7.17334 29.8263L10.4895 29.4581L28.4938 11.4531L25.5465 8.50586L7.54157 26.5101L7.17334 29.8263Z" fill="#BDA0EF"/>
<path d="M24.5643 7.52411L23.09 6.0498L3.24316 25.8966L6.5593 25.5284L24.5643 7.52411Z" fill="#BDA0EF"/>
<path d="M33.8977 10.9622L35.372 9.48856L27.5114 1.62793L26.0371 3.10223H26.0378L33.8977 10.9622Z" fill="#8357CE"/>
<path d="M25.0547 4.08496L24.0723 5.06737L31.9329 12.9273L32.9153 11.9449L25.0547 4.08496Z" fill="#8357CE"/>
<path d="M10.0214 30.9085L6.46279 31.3039C6.43778 31.3067 6.41208 31.308 6.38706 31.308H6.38637C6.38568 31.308 6.38568 31.308 6.38568 31.308C6.36066 31.308 6.33496 31.3067 6.30995 31.3039C6.28285 31.3011 6.26062 31.2858 6.23491 31.2796C6.18489 31.2677 6.13695 31.2552 6.09109 31.233C6.05635 31.2163 6.02648 31.1962 5.99521 31.1746C5.95561 31.1469 5.91948 31.117 5.88614 31.0815C5.85973 31.0538 5.8382 31.0253 5.81666 30.9933C5.79026 30.9537 5.76872 30.9127 5.75066 30.8676C5.73537 30.83 5.72425 30.7932 5.71592 30.7529C5.71105 30.7307 5.69924 30.7119 5.69646 30.689C5.69368 30.6626 5.70341 30.6383 5.70341 30.6126C5.70341 30.5862 5.69368 30.5626 5.69646 30.5362L6.09179 26.9775L2.53317 27.3729C2.50747 27.3756 2.48107 27.377 2.45605 27.377C2.40117 27.377 2.35045 27.3604 2.29834 27.3478L0.307129 35.7101L1.77032 34.2469C2.04197 33.9753 2.48107 33.9753 2.75272 34.2469C3.02438 34.5186 3.02438 34.9577 2.75272 35.2293L1.28953 36.6925L9.64762 34.7027C9.62956 34.627 9.61775 34.5485 9.62678 34.4672L10.0214 30.9085Z" fill="#DED0F7"/>
<path d="M2.75268 34.2477C2.48102 33.976 2.04193 33.976 1.77027 34.2477L0.307089 35.7109L0 37.0004L1.28949 36.6933L2.75268 35.2301C3.02364 34.9584 3.02364 34.5193 2.75268 34.2477Z" fill="#744EB7"/>
<path d="M33.8977 10.9625L26.0378 3.10254H26.0371L25.0547 4.08494L32.9153 11.9449L33.8977 10.9625Z" fill="#A781EA"/>
<path d="M28.4937 11.4531L10.4894 29.458L7.17326 29.8263L7.54149 26.5101L25.5465 8.50584L24.5641 7.52344L6.55908 25.5277L3.24295 25.8959L2.45577 26.6831L2.29736 27.348C2.34947 27.3605 2.39949 27.3772 2.45508 27.3772C2.48009 27.3772 2.50649 27.3758 2.5322 27.373L6.09081 26.9777L5.69549 30.5363C5.69271 30.5627 5.70243 30.587 5.70243 30.6127C5.70243 30.6391 5.69271 30.6628 5.69549 30.6892C5.69826 30.7121 5.71008 30.7309 5.71494 30.7531C5.72328 30.7927 5.73509 30.8309 5.74968 30.8677C5.76774 30.9122 5.78928 30.9539 5.81568 30.9935C5.83652 31.0247 5.85945 31.0546 5.88516 31.0817C5.91781 31.1164 5.95463 31.147 5.99424 31.1748C6.02481 31.1963 6.05607 31.2172 6.09011 31.2332C6.13527 31.2547 6.18391 31.2679 6.23393 31.2797C6.26033 31.286 6.28187 31.3006 6.30897 31.304C6.33398 31.3068 6.35899 31.3082 6.3847 31.3082H6.38539H6.38609H6.38678H6.38748C6.41179 31.3082 6.4375 31.3068 6.46321 31.304L10.0218 30.9087L9.6265 34.4673C9.61746 34.5493 9.62927 34.6271 9.64734 34.7029L10.3164 34.5438L11.1036 33.7573L11.4718 30.4411L29.4761 12.4362L28.4937 11.4531Z" fill="#D3C0F5"/>
<path d="M31.9329 12.9273L24.0722 5.06738L23.0898 6.04979L24.5641 7.52409L25.5466 8.5065L28.4938 11.4537L29.4762 12.4361L30.9505 13.9097L31.9329 12.9273Z" fill="#A781EA"/>
</g>
<defs>
<clipPath id="clip0">
<rect width="37" height="37" fill="white"/>
</clipPath>
</defs>
</svg>
