<svg width="37" height="37" viewBox="0 0 37 37" fill="none" xmlns="http://www.w3.org/2000/svg">
<g clip-path="url(#clip0)">
<path d="M27.5115 1.62785C29.6819 -0.542616 33.2016 -0.542616 35.3721 1.62785C37.5426 3.79831 37.5426 7.31802 35.3721 9.48848L27.5115 1.62785Z" fill="#744EB7"/>
<path d="M29.4763 12.4355L11.472 30.4405L11.1038 33.7567L30.9506 13.9092L29.4763 12.4355Z" fill="#BDA0EF"/>
<path d="M7.17346 29.8263L10.4896 29.4581L28.4939 11.4531L25.5467 8.50586L7.54169 26.5101L7.17346 29.8263Z" fill="#BDA0EF"/>
<path d="M24.5643 7.52362L23.09 6.04932L3.24316 25.8961L6.5593 25.5279L24.5643 7.52362Z" fill="#BDA0EF"/>
<path d="M33.8979 10.9622L35.3722 9.48856L27.5115 1.62793L26.0372 3.10223H26.0379L33.8979 10.9622Z" fill="#8357CE"/>
<path d="M25.0548 4.08447L24.0724 5.06688L31.933 12.9268L32.9154 11.9444L25.0548 4.08447Z" fill="#8357CE"/>
<path d="M10.0214 30.909L6.46279 31.3044C6.43778 31.3071 6.41208 31.3085 6.38706 31.3085H6.38637C6.38568 31.3085 6.38568 31.3085 6.38568 31.3085C6.36066 31.3085 6.33496 31.3071 6.30995 31.3044C6.28285 31.3016 6.26062 31.2863 6.23491 31.28C6.18489 31.2682 6.13695 31.2557 6.09109 31.2335C6.05635 31.2168 6.02648 31.1967 5.99521 31.1751C5.95561 31.1473 5.91948 31.1175 5.88614 31.082C5.85973 31.0542 5.8382 31.0258 5.81666 30.9938C5.79026 30.9542 5.76872 30.9132 5.75066 30.868C5.73537 30.8305 5.72425 30.7937 5.71592 30.7534C5.71105 30.7312 5.69924 30.7124 5.69646 30.6895C5.69368 30.6631 5.70341 30.6388 5.70341 30.6131C5.70341 30.5867 5.69368 30.563 5.69646 30.5366L6.09179 26.978L2.53317 27.3733C2.50747 27.3761 2.48107 27.3775 2.45605 27.3775C2.40117 27.3775 2.35045 27.3608 2.29834 27.3483L0.307129 35.7106L1.77032 34.2474C2.04197 33.9758 2.48107 33.9758 2.75272 34.2474C3.02438 34.5191 3.02438 34.9582 2.75272 35.2298L1.28953 36.693L9.64762 34.7032C9.62956 34.6274 9.61775 34.5489 9.62678 34.4677L10.0214 30.909Z" fill="#DED0F7"/>
<path d="M2.75268 34.2472C2.48102 33.9755 2.04193 33.9755 1.77027 34.2472L0.307089 35.7104L0 36.9999L1.28949 36.6928L2.75268 35.2296C3.02364 34.9579 3.02364 34.5189 2.75268 34.2472Z" fill="#744EB7"/>
<path d="M33.8978 10.962L26.0379 3.10205H26.0372L25.0548 4.08446L32.9154 11.9444L33.8978 10.962Z" fill="#A781EA"/>
<path d="M28.4939 11.4531L10.4896 29.458L7.17351 29.8263L7.54173 26.5101L25.5467 8.50584L24.5643 7.52344L6.55933 25.5277L3.24319 25.8959L2.45602 26.6831L2.29761 27.348C2.34972 27.3605 2.39974 27.3772 2.45532 27.3772C2.48033 27.3772 2.50673 27.3758 2.53244 27.373L6.09105 26.9777L5.69573 30.5363C5.69295 30.5627 5.70268 30.587 5.70268 30.6127C5.70268 30.6391 5.69295 30.6628 5.69573 30.6892C5.69851 30.7121 5.71032 30.7309 5.71518 30.7531C5.72352 30.7927 5.73533 30.8309 5.74992 30.8677C5.76799 30.9122 5.78952 30.9539 5.81592 30.9935C5.83677 31.0247 5.85969 31.0546 5.8854 31.0817C5.91806 31.1164 5.95488 31.147 5.99448 31.1748C6.02505 31.1963 6.05631 31.2172 6.09036 31.2332C6.13552 31.2547 6.18415 31.2679 6.23418 31.2797C6.26058 31.286 6.28212 31.3006 6.30921 31.304C6.33422 31.3068 6.35923 31.3082 6.38494 31.3082H6.38564H6.38633H6.38703H6.38772C6.41204 31.3082 6.43774 31.3068 6.46345 31.304L10.0221 30.9087L9.62674 34.4673C9.61771 34.5493 9.62952 34.6271 9.64758 34.7029L10.3166 34.5438L11.1038 33.7573L11.472 30.4411L29.4763 12.4362L28.4939 11.4531Z" fill="#D3C0F5"/>
<path d="M31.933 12.9268L24.0724 5.06689L23.09 6.0493L24.5643 7.5236L25.5467 8.50601L28.4939 11.4532L29.4763 12.4356L30.9506 13.9092L31.933 12.9268Z" fill="#A781EA"/>
</g>
<defs>
<clipPath id="clip0">
<rect width="37" height="37" fill="white"/>
</clipPath>
</defs>
</svg>
