<svg width="25" height="34" viewBox="0 0 25 34" fill="none" xmlns="http://www.w3.org/2000/svg">
<path d="M7.85705 10.881H7.81305L6.42847 16.5057V33.3685H9.28563V16.8628L10.7142 11.0596V0H7.85705V10.881Z" fill="#9C71E8"/>
<path d="M7.85679 6.5287H3.57104V8.70491H7.85679V6.5287Z" fill="#BDA0EF"/>
<path d="M7.85679 4.35225H3.57104V6.52846H7.85679V4.35225Z" fill="#D3C0F5"/>
<path d="M7.85679 8.70483H3.57104V10.881H7.85679V8.70483Z" fill="#D3C0F5"/>
<path d="M7.85679 2.17678H3.57104V4.35298H7.85679V2.17678Z" fill="#BDA0EF"/>
<path d="M7.85679 0H3.57104V2.17621H7.85679V0Z" fill="#D3C0F5"/>
<path d="M20.7142 0H16.4285V3.62701H20.7142V0Z" fill="#A781EA"/>
<path d="M18.5713 30.467H24.9999L23.5713 6.5287H18.5713V30.467Z" fill="#BDA0EF"/>
<path d="M18.5713 6.52881H23.5713L20.7142 3.6272H18.5713V6.52881Z" fill="#D3C0F5"/>
<path d="M18.5712 6.5287H13.5712L12.1426 30.467H18.5712V6.5287Z" fill="#D3C0F5"/>
<path d="M18.5711 3.6272H16.4282L13.571 6.52881H18.5711V3.6272Z" fill="#DED0F7"/>
<path d="M18.5712 30.4667H12.1426V33.3683H18.5712V30.4667Z" fill="#BDA0EF"/>
<path d="M24.9999 30.4667H18.5713V33.3683H24.9999V30.4667Z" fill="#A781EA"/>
<path d="M3.57145 3.62701C3.57145 1.63215 1.9643 0 0 0V10.881H3.57145V3.62701Z" fill="#9C71E8"/>
</svg>
