<svg width="33" height="33" viewBox="0 0 33 33" fill="none" xmlns="http://www.w3.org/2000/svg">
<path d="M16.5 33C7.43729 33 0 25.5627 0 16.5C0 7.43729 7.43729 0 16.5 0C25.5627 0 33 7.43729 33 16.5C33 25.5627 25.5627 33 16.5 33Z" fill="#BDA0EF"/>
<path d="M33 16.5C33 7.43729 25.5627 0 16.5 0V33C25.5627 33 33 25.5627 33 16.5Z" fill="#9161E5"/>
<path d="M24.2344 10.6992L20.3672 16.5H22.3008C22.3008 18.0494 21.6976 19.5061 20.6024 20.6023C19.5062 21.6975 18.0494 22.3008 16.5 22.3008C15.5597 22.3008 14.6533 22.0785 13.8411 21.6588L11.6887 24.8877C13.1057 25.7022 14.7485 26.168 16.5 26.168C19.1698 26.168 21.5868 25.0859 23.3364 23.3363C25.0859 21.5868 26.168 19.1698 26.168 16.5H28.1661L24.2344 10.6992Z" fill="#E9DFFA"/>
<path d="M23.3363 23.3363C25.0859 21.5868 26.168 19.1698 26.168 16.5H28.166L24.2344 10.6992L20.3672 16.5H22.3008C22.3008 18.0494 21.6975 19.5061 20.6023 20.6023C19.5061 21.6975 18.0494 22.3008 16.5 22.3008V26.168C19.1698 26.168 21.5868 25.0859 23.3363 23.3363Z" fill="#BDA0EF"/>
<path d="M16.5 6.83203C13.8302 6.83203 11.4132 7.91414 9.66369 9.66369C7.91414 11.4132 6.83203 13.8302 6.83203 16.5H4.89844L8.76562 22.3008L12.6328 16.5H10.6992C10.6992 14.9506 11.3025 13.4939 12.3977 12.3977C13.4939 11.3025 14.9506 10.6992 16.5 10.6992C17.4404 10.6992 18.3467 10.9215 19.1589 11.341L21.3113 8.11228C19.8944 7.29781 18.2516 6.83203 16.5 6.83203Z" fill="#E9DFFA"/>
<path d="M19.1589 11.341L21.3113 8.11228C19.8944 7.29781 18.2516 6.83203 16.5 6.83203V10.6992C17.4404 10.6992 18.3467 10.9215 19.1589 11.341Z" fill="#DED0F7"/>
</svg>
