<svg width="38" height="34" viewBox="0 0 38 34" fill="none" xmlns="http://www.w3.org/2000/svg">
<path d="M19.0002 28.8983C9.59262 28.8983 1.96582 26.9962 1.96582 25.0452V29.5379C1.97106 31.4876 9.59524 33.3936 19.0002 33.3936C28.4051 33.3936 36.0293 31.4876 36.0345 29.5379V25.0452C36.0345 26.9962 28.4077 28.8983 19.0002 28.8983Z" fill="#A781EA"/>
<path d="M17.0344 21.834C7.6268 21.834 0 19.9318 0 17.9809V22.4736C0.00524134 24.4232 7.62942 26.3292 17.0344 26.3292C26.4393 26.3292 34.0635 24.4232 34.0687 22.4736V17.9809C34.0687 19.9318 26.4419 21.834 17.0344 21.834Z" fill="#A781EA"/>
<path d="M20.9657 14.7701C11.5582 14.7701 3.9314 12.8679 3.9314 10.917V15.4097C3.93664 17.3593 11.5608 19.2653 20.9657 19.2653C30.3707 19.2653 37.9949 17.3593 38.0001 15.4097V10.917C38.0001 12.8679 30.3733 14.7701 20.9657 14.7701Z" fill="#A781EA"/>
<path d="M34.0687 3.29439C34.0687 5.24469 26.4419 7.06399 17.0344 7.06399C7.6268 7.06399 0 5.24469 0 3.29439C0 1.34344 7.6268 0 17.0344 0C26.4419 0 34.0687 1.34344 34.0687 3.29439Z" fill="#D3C0F5"/>
<path d="M17.0344 7.06391C7.6268 7.06391 0 5.16177 0 3.21082V7.70352C0.00524134 9.65318 7.62942 11.5592 17.0344 11.5592C26.4393 11.5592 34.0635 9.65318 34.0687 7.70352V3.21082C34.0687 5.16177 26.4419 7.06391 17.0344 7.06391Z" fill="#A781EA"/>
<path d="M2.62158 5.18515V9.6772C3.01992 9.82105 3.45627 9.95976 3.93192 10.0921V5.59935C3.45627 5.46706 3.01992 5.32835 2.62158 5.18515Z" fill="#BDA0EF"/>
<path d="M30.1379 5.59935V10.0921C30.6136 9.95976 31.0499 9.82105 31.4483 9.6772V5.18515C31.0499 5.32899 30.6136 5.46706 30.1379 5.59935Z" fill="#BDA0EF"/>
<path d="M5.89722 6.06519V10.5585C6.31652 10.6439 6.75352 10.7249 7.20755 10.8013V6.30793C6.75352 6.23151 6.31652 6.1506 5.89722 6.06519Z" fill="#BDA0EF"/>
<path d="M26.8616 6.30793V10.8019C27.3156 10.7249 27.7526 10.6439 28.1719 10.5585V6.06519C27.7526 6.1506 27.3156 6.23151 26.8616 6.30793Z" fill="#BDA0EF"/>
<path d="M9.17285 6.59467V11.0886C9.60002 11.1426 10.0357 11.1927 10.4832 11.2376V6.74365C10.0357 6.6987 9.60002 6.64797 9.17285 6.59467Z" fill="#BDA0EF"/>
<path d="M23.5869 6.74429V11.2383C24.0344 11.1927 24.4701 11.1426 24.8972 11.0893V6.59467C24.4701 6.64925 24.0344 6.69934 23.5869 6.74429Z" fill="#BDA0EF"/>
<path d="M12.4482 6.909V11.4036C12.8787 11.4332 13.315 11.4595 13.7586 11.4807V6.98542C13.315 6.96423 12.8787 6.93854 12.4482 6.909Z" fill="#BDA0EF"/>
<path d="M20.3113 6.98542V11.4807C20.7548 11.4595 21.1912 11.4332 21.6216 11.4036V6.909C21.1912 6.93854 20.7548 6.96423 20.3113 6.98542Z" fill="#BDA0EF"/>
<path d="M17.0341 7.06413C16.8146 7.06413 16.5964 7.0622 16.3789 7.06028V11.5555C16.5964 11.5575 16.8146 11.5594 17.0341 11.5594C17.2536 11.5594 17.4717 11.5575 17.6892 11.5555V7.06028C17.4717 7.0622 17.2536 7.06413 17.0341 7.06413Z" fill="#BDA0EF"/>
<path d="M6.55127 12.8913V17.3834C6.94961 17.5272 7.38595 17.6659 7.8616 17.7982V13.3055C7.38595 13.1732 6.94961 13.0345 6.55127 12.8913Z" fill="#BDA0EF"/>
<path d="M34.0686 13.3055V17.7982C34.5443 17.6659 34.9806 17.5272 35.3789 17.3834V12.8913C34.9806 13.0352 34.5443 13.1732 34.0686 13.3055Z" fill="#BDA0EF"/>
<path d="M9.82666 13.7713V18.2647C10.246 18.3501 10.683 18.431 11.137 18.5074V14.0141C10.683 13.9377 10.246 13.8568 9.82666 13.7713Z" fill="#BDA0EF"/>
<path d="M30.793 14.0141V18.5081C31.247 18.431 31.684 18.3501 32.1033 18.2647V13.7713C31.684 13.8568 31.247 13.9377 30.793 14.0141Z" fill="#BDA0EF"/>
<path d="M13.1023 14.3008V18.7948C13.5295 18.8487 13.9652 18.8988 14.4126 18.9438V14.4498C13.9652 14.4042 13.5295 14.3541 13.1023 14.3008Z" fill="#BDA0EF"/>
<path d="M27.5164 14.4492V18.9438C27.9638 18.8982 28.3995 18.8481 28.8267 18.7948V14.3008C28.3995 14.3548 27.9638 14.4049 27.5164 14.4492Z" fill="#BDA0EF"/>
<path d="M16.3789 14.6152V19.1098C16.8094 19.1393 17.2457 19.1656 17.6892 19.1868V14.6916C17.2457 14.6704 16.8094 14.6447 16.3789 14.6152Z" fill="#BDA0EF"/>
<path d="M24.2407 14.6916V19.1868C24.6843 19.1656 25.1206 19.1393 25.5511 19.1098V14.6152C25.1206 14.6447 24.6843 14.6704 24.2407 14.6916Z" fill="#BDA0EF"/>
<path d="M20.9664 14.7703C20.747 14.7703 20.5288 14.7684 20.3113 14.7664V19.2617C20.5288 19.2636 20.747 19.2656 20.9664 19.2656C21.1859 19.2656 21.4041 19.2636 21.6216 19.2617V14.7664C21.4041 14.7684 21.1859 14.7703 20.9664 14.7703Z" fill="#BDA0EF"/>
<path d="M2.62158 19.9552V24.4473C3.01992 24.5911 3.45627 24.7292 3.93192 24.8621V20.3694C3.45627 20.2371 3.01992 20.0984 2.62158 19.9552Z" fill="#BDA0EF"/>
<path d="M30.1379 20.3694V24.8621C30.6136 24.7298 31.0499 24.5911 31.4483 24.4473V19.9552C31.0499 20.0991 30.6136 20.2371 30.1379 20.3694Z" fill="#BDA0EF"/>
<path d="M5.89722 20.8348V25.3281C6.31652 25.4135 6.75352 25.4945 7.20755 25.5709V21.0775C6.75352 21.0011 6.31652 20.9202 5.89722 20.8348Z" fill="#BDA0EF"/>
<path d="M26.8616 21.0775V25.5715C27.3156 25.4945 27.7526 25.4135 28.1719 25.3281V20.8348C27.7526 20.9202 27.3156 21.0011 26.8616 21.0775Z" fill="#BDA0EF"/>
<path d="M9.17285 21.3656V25.8596C9.60002 25.9136 10.0357 25.9636 10.4832 26.0086V21.5146C10.0357 21.469 9.60002 21.4189 9.17285 21.3656Z" fill="#BDA0EF"/>
<path d="M23.5869 21.514V26.0086C24.0344 25.963 24.4701 25.9129 24.8972 25.8596V21.3656C24.4701 21.4196 24.0344 21.4697 23.5869 21.514Z" fill="#BDA0EF"/>
<path d="M12.4482 21.6795V26.1741C12.8787 26.2037 13.315 26.23 13.7586 26.2512V21.7559C13.315 21.7347 12.8787 21.709 12.4482 21.6795Z" fill="#BDA0EF"/>
<path d="M20.3113 21.7559V26.2512C20.7548 26.23 21.1912 26.2037 21.6216 26.1741V21.6795C21.1912 21.709 20.7548 21.7347 20.3113 21.7559Z" fill="#BDA0EF"/>
<path d="M17.0341 21.8342C16.8146 21.8342 16.5964 21.8323 16.3789 21.8303V26.3256C16.5964 26.3275 16.8146 26.3295 17.0341 26.3295C17.2536 26.3295 17.4717 26.3275 17.6892 26.3256V21.8303C17.4717 21.8323 17.2536 21.8342 17.0341 21.8342Z" fill="#BDA0EF"/>
<path d="M4.58716 27.0191V31.5112C4.9855 31.655 5.42184 31.7931 5.89749 31.926V27.4333C5.42184 27.301 4.9855 27.1623 4.58716 27.0191Z" fill="#BDA0EF"/>
<path d="M32.1038 27.4333V31.926C32.5794 31.7937 33.0158 31.655 33.4141 31.5112V27.0191C33.0158 27.163 32.5794 27.301 32.1038 27.4333Z" fill="#BDA0EF"/>
<path d="M7.86108 27.8991V32.3925C8.28039 32.4779 8.71739 32.5588 9.17142 32.6352V28.1419C8.71739 28.0655 8.28039 27.9846 7.86108 27.8991Z" fill="#BDA0EF"/>
<path d="M28.8281 28.1419V32.6359C29.2822 32.5588 29.7192 32.4779 30.1385 32.3925V27.8991C29.7192 27.9846 29.2822 28.0655 28.8281 28.1419Z" fill="#BDA0EF"/>
<path d="M11.1384 28.4295V32.9235C11.5656 32.9775 12.0013 33.0275 12.4488 33.0725V28.5785C12.0013 28.5329 11.5656 28.4828 11.1384 28.4295Z" fill="#BDA0EF"/>
<path d="M25.5515 28.5779V33.0725C25.999 33.0269 26.4347 32.9768 26.8618 32.9235V28.4295C26.4347 28.4835 25.999 28.5336 25.5515 28.5779Z" fill="#BDA0EF"/>
<path d="M14.4131 28.7425V33.2371C14.8435 33.2667 15.2799 33.293 15.7234 33.3142V28.8189C15.2799 28.7977 14.8435 28.772 14.4131 28.7425Z" fill="#BDA0EF"/>
<path d="M22.2751 28.8189V33.3142C22.7187 33.293 23.155 33.2667 23.5855 33.2371V28.7425C23.155 28.772 22.7187 28.7977 22.2751 28.8189Z" fill="#BDA0EF"/>
<path d="M18.9996 28.8981C18.7802 28.8981 18.562 28.8962 18.3445 28.8942V33.3895C18.562 33.3914 18.7802 33.3934 18.9996 33.3934C19.2191 33.3934 19.4373 33.3914 19.6548 33.3895V28.8942C19.4373 28.8962 19.2191 28.8981 18.9996 28.8981Z" fill="#BDA0EF"/>
<path d="M33.5527 23.3572C31.6921 24.9613 25.0035 26.3292 17.0347 26.3292C10.804 26.3292 5.35762 25.4924 2.38775 24.3609C2.11454 24.6036 1.96582 24.8605 1.96582 25.1283C1.96582 27.0792 9.59262 28.8979 19.0002 28.8979C28.4084 28.8979 36.0345 27.0792 36.0345 25.1283C36.0345 24.4559 35.1271 23.8549 33.5527 23.3572Z" fill="#8357CE"/>
<path d="M20.9654 19.2656C12.3086 19.2656 5.16534 17.6505 4.07907 15.8729C1.53768 16.4374 0 17.1894 0 18.0647C0 20.015 7.6268 21.8343 17.0344 21.8343C26.4419 21.8343 34.0687 20.015 34.0687 18.0647C34.0687 17.9787 34.049 17.8945 34.0196 17.811C30.8951 18.6729 26.208 19.2656 20.9654 19.2656Z" fill="#9161E5"/>
<path d="M33.4093 8.70079C31.3711 10.2549 24.8142 11.5591 17.0347 11.5591C12.0109 11.5591 7.49616 11.0146 4.37822 10.2106C4.08929 10.461 3.9314 10.7243 3.9314 11.0004C3.9314 12.9514 11.5582 14.77 20.9657 14.77C30.3733 14.77 38.0001 12.9514 38.0001 11.0004C38.0001 10.068 36.2554 9.2749 33.4093 8.70079Z" fill="#9C71E8"/>
</svg>
